<?xml version="1.0" encoding="utf-8"?>
<svg version="1.1" baseProfile="full" width="800" height="600" xmlns="http://www.w3.org/2000/svg">
<clipPath>
<rect x="0" y="0" width="800" height="600" fill="rgb(0,0,0)" />
</clipPath>
<text x="271" y="34" fill="rgb(0,0,0)">
Number of Elements Searched Versus Time</text>
<line x1="100" y1="50" x2="100" y2="550" stroke="rgb(200,200,200)" />
<line x1="192.857" y1="50" x2="192.857" y2="550" stroke="rgb(200,200,200)" />
<line x1="285.714" y1="50" x2="285.714" y2="550" stroke="rgb(200,200,200)" />
<line x1="378.571" y1="50" x2="378.571" y2="550" stroke="rgb(200,200,200)" />
<line x1="471.429" y1="50" x2="471.429" y2="550" stroke="rgb(200,200,200)" />
<line x1="564.286" y1="50" x2="564.286" y2="550" stroke="rgb(200,200,200)" />
<line x1="657.143" y1="50" x2="657.143" y2="550" stroke="rgb(200,200,200)" />
<line x1="750" y1="50" x2="750" y2="550" stroke="rgb(200,200,200)" />
<line x1="100" y1="550" x2="750" y2="550" stroke="rgb(200,200,200)" />
<line x1="100" y1="498.86" x2="750" y2="498.86" stroke="rgb(200,200,200)" />
<line x1="100" y1="447.719" x2="750" y2="447.719" stroke="rgb(200,200,200)" />
<line x1="100" y1="396.579" x2="750" y2="396.579" stroke="rgb(200,200,200)" />
<line x1="100" y1="345.438" x2="750" y2="345.438" stroke="rgb(200,200,200)" />
<line x1="100" y1="294.298" x2="750" y2="294.298" stroke="rgb(200,200,200)" />
<line x1="100" y1="243.157" x2="750" y2="243.157" stroke="rgb(200,200,200)" />
<line x1="100" y1="192.017" x2="750" y2="192.017" stroke="rgb(200,200,200)" />
<line x1="100" y1="140.877" x2="750" y2="140.877" stroke="rgb(200,200,200)" />
<line x1="100" y1="89.7361" x2="750" y2="89.7361" stroke="rgb(200,200,200)" />
<line x1="100" y1="550" x2="750" y2="550" stroke="rgb(0,0,0)" />
<text x="100" y="578" fill="rgb(0,0,0)">
1000</text>
<line x1="100" y1="550" x2="100" y2="558" stroke="rgb(0,0,0)" />
<line x1="118.571" y1="550" x2="118.571" y2="554" stroke="rgb(0,0,0)" />
<line x1="137.143" y1="550" x2="137.143" y2="554" stroke="rgb(0,0,0)" />
<line x1="155.714" y1="550" x2="155.714" y2="554" stroke="rgb(0,0,0)" />
<line x1="174.286" y1="550" x2="174.286" y2="554" stroke="rgb(0,0,0)" />
<text x="192" y="578" fill="rgb(0,0,0)">
2000</text>
<line x1="192.857" y1="550" x2="192.857" y2="558" stroke="rgb(0,0,0)" />
<line x1="211.429" y1="550" x2="211.429" y2="554" stroke="rgb(0,0,0)" />
<line x1="230" y1="550" x2="230" y2="554" stroke="rgb(0,0,0)" />
<line x1="248.571" y1="550" x2="248.571" y2="554" stroke="rgb(0,0,0)" />
<line x1="267.143" y1="550" x2="267.143" y2="554" stroke="rgb(0,0,0)" />
<text x="285" y="578" fill="rgb(0,0,0)">
3000</text>
<line x1="285.714" y1="550" x2="285.714" y2="558" stroke="rgb(0,0,0)" />
<line x1="304.286" y1="550" x2="304.286" y2="554" stroke="rgb(0,0,0)" />
<line x1="322.857" y1="550" x2="322.857" y2="554" stroke="rgb(0,0,0)" />
<line x1="341.429" y1="550" x2="341.429" y2="554" stroke="rgb(0,0,0)" />
<line x1="360" y1="550" x2="360" y2="554" stroke="rgb(0,0,0)" />
<text x="378" y="578" fill="rgb(0,0,0)">
4000</text>
<line x1="378.571" y1="550" x2="378.571" y2="558" stroke="rgb(0,0,0)" />
<line x1="397.143" y1="550" x2="397.143" y2="554" stroke="rgb(0,0,0)" />
<line x1="415.714" y1="550" x2="415.714" y2="554" stroke="rgb(0,0,0)" />
<line x1="434.286" y1="550" x2="434.286" y2="554" stroke="rgb(0,0,0)" />
<line x1="452.857" y1="550" x2="452.857" y2="554" stroke="rgb(0,0,0)" />
<text x="471" y="578" fill="rgb(0,0,0)">
5000</text>
<line x1="471.429" y1="550" x2="471.429" y2="558" stroke="rgb(0,0,0)" />
<line x1="490" y1="550" x2="490" y2="554" stroke="rgb(0,0,0)" />
<line x1="508.571" y1="550" x2="508.571" y2="554" stroke="rgb(0,0,0)" />
<line x1="527.143" y1="550" x2="527.143" y2="554" stroke="rgb(0,0,0)" />
<line x1="545.714" y1="550" x2="545.714" y2="554" stroke="rgb(0,0,0)" />
<text x="564" y="578" fill="rgb(0,0,0)">
6000</text>
<line x1="564.286" y1="550" x2="564.286" y2="558" stroke="rgb(0,0,0)" />
<line x1="582.857" y1="550" x2="582.857" y2="554" stroke="rgb(0,0,0)" />
<line x1="601.429" y1="550" x2="601.429" y2="554" stroke="rgb(0,0,0)" />
<line x1="620" y1="550" x2="620" y2="554" stroke="rgb(0,0,0)" />
<line x1="638.571" y1="550" x2="638.571" y2="554" stroke="rgb(0,0,0)" />
<text x="657" y="578" fill="rgb(0,0,0)">
7000</text>
<line x1="657.143" y1="550" x2="657.143" y2="558" stroke="rgb(0,0,0)" />
<line x1="675.714" y1="550" x2="675.714" y2="554" stroke="rgb(0,0,0)" />
<line x1="694.286" y1="550" x2="694.286" y2="554" stroke="rgb(0,0,0)" />
<line x1="712.857" y1="550" x2="712.857" y2="554" stroke="rgb(0,0,0)" />
<line x1="731.429" y1="550" x2="731.429" y2="554" stroke="rgb(0,0,0)" />
<text x="750" y="578" fill="rgb(0,0,0)">
8000</text>
<line x1="750" y1="550" x2="750" y2="558" stroke="rgb(0,0,0)" />
<text x="409" y="594" fill="rgb(0,0,0)">
N</text>
<line x1="100" y1="50" x2="100" y2="550" stroke="rgb(0,0,0)" />
<text x="58" y="558" fill="rgb(0,0,0)">
0</text>
<line x1="100" y1="550" x2="92" y2="550" stroke="rgb(0,0,0)" />
<line x1="100" y1="539.772" x2="96" y2="539.772" stroke="rgb(0,0,0)" />
<line x1="100" y1="529.544" x2="96" y2="529.544" stroke="rgb(0,0,0)" />
<line x1="100" y1="519.316" x2="96" y2="519.316" stroke="rgb(0,0,0)" />
<line x1="100" y1="509.088" x2="96" y2="509.088" stroke="rgb(0,0,0)" />
<text x="40" y="506" fill="rgb(0,0,0)">
2000</text>
<line x1="100" y1="498.86" x2="92" y2="498.86" stroke="rgb(0,0,0)" />
<line x1="100" y1="488.631" x2="96" y2="488.631" stroke="rgb(0,0,0)" />
<line x1="100" y1="478.403" x2="96" y2="478.403" stroke="rgb(0,0,0)" />
<line x1="100" y1="468.175" x2="96" y2="468.175" stroke="rgb(0,0,0)" />
<line x1="100" y1="457.947" x2="96" y2="457.947" stroke="rgb(0,0,0)" />
<text x="40" y="455" fill="rgb(0,0,0)">
4000</text>
<line x1="100" y1="447.719" x2="92" y2="447.719" stroke="rgb(0,0,0)" />
<line x1="100" y1="437.491" x2="96" y2="437.491" stroke="rgb(0,0,0)" />
<line x1="100" y1="427.263" x2="96" y2="427.263" stroke="rgb(0,0,0)" />
<line x1="100" y1="417.035" x2="96" y2="417.035" stroke="rgb(0,0,0)" />
<line x1="100" y1="406.807" x2="96" y2="406.807" stroke="rgb(0,0,0)" />
<text x="40" y="404" fill="rgb(0,0,0)">
6000</text>
<line x1="100" y1="396.579" x2="92" y2="396.579" stroke="rgb(0,0,0)" />
<line x1="100" y1="386.351" x2="96" y2="386.351" stroke="rgb(0,0,0)" />
<line x1="100" y1="376.123" x2="96" y2="376.123" stroke="rgb(0,0,0)" />
<line x1="100" y1="365.894" x2="96" y2="365.894" stroke="rgb(0,0,0)" />
<line x1="100" y1="355.666" x2="96" y2="355.666" stroke="rgb(0,0,0)" />
<text x="40" y="353" fill="rgb(0,0,0)">
8000</text>
<line x1="100" y1="345.438" x2="92" y2="345.438" stroke="rgb(0,0,0)" />
<line x1="100" y1="335.21" x2="96" y2="335.21" stroke="rgb(0,0,0)" />
<line x1="100" y1="324.982" x2="96" y2="324.982" stroke="rgb(0,0,0)" />
<line x1="100" y1="314.754" x2="96" y2="314.754" stroke="rgb(0,0,0)" />
<line x1="100" y1="304.526" x2="96" y2="304.526" stroke="rgb(0,0,0)" />
<text x="36" y="302" fill="rgb(0,0,0)">
10000</text>
<line x1="100" y1="294.298" x2="92" y2="294.298" stroke="rgb(0,0,0)" />
<line x1="100" y1="284.07" x2="96" y2="284.07" stroke="rgb(0,0,0)" />
<line x1="100" y1="273.842" x2="96" y2="273.842" stroke="rgb(0,0,0)" />
<line x1="100" y1="263.614" x2="96" y2="263.614" stroke="rgb(0,0,0)" />
<line x1="100" y1="253.385" x2="96" y2="253.385" stroke="rgb(0,0,0)" />
<text x="36" y="251" fill="rgb(0,0,0)">
12000</text>
<line x1="100" y1="243.157" x2="92" y2="243.157" stroke="rgb(0,0,0)" />
<line x1="100" y1="232.929" x2="96" y2="232.929" stroke="rgb(0,0,0)" />
<line x1="100" y1="222.701" x2="96" y2="222.701" stroke="rgb(0,0,0)" />
<line x1="100" y1="212.473" x2="96" y2="212.473" stroke="rgb(0,0,0)" />
<line x1="100" y1="202.245" x2="96" y2="202.245" stroke="rgb(0,0,0)" />
<text x="36" y="200" fill="rgb(0,0,0)">
14000</text>
<line x1="100" y1="192.017" x2="92" y2="192.017" stroke="rgb(0,0,0)" />
<line x1="100" y1="181.789" x2="96" y2="181.789" stroke="rgb(0,0,0)" />
<line x1="100" y1="171.561" x2="96" y2="171.561" stroke="rgb(0,0,0)" />
<line x1="100" y1="161.333" x2="96" y2="161.333" stroke="rgb(0,0,0)" />
<line x1="100" y1="151.105" x2="96" y2="151.105" stroke="rgb(0,0,0)" />
<text x="36" y="148" fill="rgb(0,0,0)">
16000</text>
<line x1="100" y1="140.877" x2="92" y2="140.877" stroke="rgb(0,0,0)" />
<line x1="100" y1="130.648" x2="96" y2="130.648" stroke="rgb(0,0,0)" />
<line x1="100" y1="120.42" x2="96" y2="120.42" stroke="rgb(0,0,0)" />
<line x1="100" y1="110.192" x2="96" y2="110.192" stroke="rgb(0,0,0)" />
<line x1="100" y1="99.9642" x2="96" y2="99.9642" stroke="rgb(0,0,0)" />
<text x="36" y="97" fill="rgb(0,0,0)">
18000</text>
<line x1="100" y1="89.7361" x2="92" y2="89.7361" stroke="rgb(0,0,0)" />
<line x1="100" y1="79.508" x2="96" y2="79.508" stroke="rgb(0,0,0)" />
<line x1="100" y1="69.2799" x2="96" y2="69.2799" stroke="rgb(0,0,0)" />
<line x1="100" y1="59.0518" x2="96" y2="59.0518" stroke="rgb(0,0,0)" />
<text x="36" y="367" transform="rotate(-90,36,367)">Time (nanoseconds)</text>
<text x="120" y="66" fill="rgb(200,0,100)">
Linked List</text>
<text x="120" y="98" fill="rgb(100,20,220)">
Dynamic Array</text>
<clipPath>
<rect x="100" y="50" width="650" height="500" fill="rgb(0,0,0)" />
</clipPath>
<line x1="100" y1="497.658" x2="192.857" y2="444.651" stroke="rgb(200,0,100)" />
<line x1="192.857" y1="444.651" x2="378.571" y2="339.429" stroke="rgb(200,0,100)" />
<line x1="378.571" y1="339.429" x2="750" y2="50" stroke="rgb(200,0,100)" />
<line x1="100" y1="512.054" x2="192.857" y2="474.977" stroke="rgb(100,20,220)" />
<line x1="192.857" y1="474.977" x2="378.571" y2="399.596" stroke="rgb(100,20,220)" />
<line x1="378.571" y1="399.596" x2="750" y2="246.303" stroke="rgb(100,20,220)" />
</svg>

